<svg xmlns="http://www.w3.org/2000/svg" viewBox="0 0 48 48">
  <rect width="48" height="48" rx="10" fill="#16241C"/>
  <g transform="translate(3.6,2.4) scale(0.85)">
    <path d="M13 42 V25 C13 14.5 17.9 7 24 7 c6.1 0 11 7.5 11 18 V42" stroke="#D4A45F" stroke-width="3" stroke-linecap="round" fill="none"/>
    <circle cx="13" cy="30" r="1.15" fill="#D4A45F"/><circle cx="13" cy="36" r="1.15" fill="#D4A45F"/>
    <circle cx="35" cy="30" r="1.15" fill="#D4A45F"/><circle cx="35" cy="36" r="1.15" fill="#D4A45F"/>
    <circle cx="16.1" cy="15.5" r="1.15" fill="#D4A45F"/><circle cx="31.9" cy="15.5" r="1.15" fill="#D4A45F"/>
    <path d="M20.2 42 c0-5.2 -1.8-7.4 -1.8-11 c0-4.6 2.3-7.1 4.6-7.7 l1.4-3 1.7 3.1 c2.6 0.9 4.1 3 4.1 4.9 l-2.3 0.8 c-0.8 0.3 -1.3 1 -1.3 1.8 c0 2.9 1.6 5 1.6 11.1 Z" fill="#D4A45F"/>
  </g>
</svg>
